<svg style="width:100%;margin-bottom:20px;flex:0 0 130px" class="jsx-2263963463 artboard"><svg viewBox="-379.66386554621846 -280 759.3277310924369 380" xmlns="http://www.w3.org/2000/svg" xmlns:xlink="http://www.w3.org/1999/xlink" version="1.1" class="jsx-2263963463 artboard-inner" style="width: 229px; height: 114.601px; max-height: 100%;"><g transform="translate(-383.7254901960784 96.9187675070028) scale(1.9452225334578273)" fill="#FFFFFF"><g id="line1"><path d="M50.760-14.976C47.952-8.568 42.768-4.968 36.288-4.968C25.776-4.968 17.928-14.184 17.928-26.568C17.928-36.216 23.544-42.984 31.608-42.984C36.288-42.984 41.112-40.392 44.208-36.144C46.080-33.624 46.656-32.472 48.168-28.656L49.680-29.088L45.576-49.824C44.568-48.312 43.632-47.736 41.832-47.736C41.256-47.736 40.536-47.880 39.168-48.096C35.136-48.816 31.752-49.176 28.800-49.176C12.744-49.176 2.088-39.528 2.088-24.984C2.088-9.360 14.400 1.224 32.616 1.224C34.200 1.224 35.856 1.152 37.584 1.008L42.336 0.576L43.704 0.504C43.848 0.432 44.064 0.432 44.280 0.432C45.504 0.432 45.936 0.648 46.656 1.584L52.416-14.400Z"></path><path d="M63.475-41.544C63.475-40.824 63.475-40.104 63.475-39.384L62.251-17.640C62.179-16.848 62.179-16.128 62.179-15.336C62.179-8.496 63.475-5.328 67.435-2.664C71.035-0.144 76.435 1.224 82.699 1.224C89.539 1.224 95.083-0.504 99.043-3.888C102.427-6.768 103.939-10.512 103.939-16.344C103.939-16.920 103.867-17.424 103.867-18.000L102.787-39.384C102.715-40.032 102.715-40.752 102.715-41.400C102.715-44.640 103.723-45.864 106.675-46.224L106.675-48.024L91.915-48.024L91.915-46.224C95.515-45.936 96.523-44.568 96.811-39.384L97.747-21.672C97.819-20.448 97.819-19.296 97.819-18.216C97.819-14.256 97.531-12.312 96.523-10.080C95.155-6.984 91.483-4.968 87.235-4.968C80.683-4.968 77.155-8.784 77.155-15.696C77.155-16.560 77.155-17.496 77.227-18.432L78.523-39.384C78.883-44.496 79.747-45.792 83.203-46.224L83.203-48.024L59.659-48.024L59.659-46.224C62.467-45.864 63.475-44.568 63.475-41.544Z"></path><path d="M154.382-32.184C158.558-34.632 160.718-37.584 160.718-41.040C160.718-43.200 159.710-45.072 158.054-46.152C155.966-47.520 153.518-48.024 148.478-48.024L115.142-48.024L115.142-46.224C118.454-45.648 119.174-44.352 119.174-39.384L119.174-8.640C119.174-3.600 118.454-2.376 115.142-1.800L115.142 0L144.446 0C152.078 0 156.614-1.224 160.214-4.320C162.878-6.624 164.318-10.080 164.318-14.112C164.318-17.784 163.166-20.880 160.862-23.328C157.838-26.568 154.382-28.296 148.478-29.376C151.574-30.672 152.726-31.176 154.382-32.184ZM134.222-39.672C134.222-42.336 135.446-43.128 139.694-43.128C143.870-43.128 146.318-41.544 146.318-38.736C146.318-37.584 145.814-36.216 145.094-35.280C143.006-32.544 140.054-30.888 134.222-29.376ZM138.470-25.488L140.558-26.136L141.566-26.568C143.798-25.272 144.446-24.768 145.814-23.472C148.118-21.168 149.414-18.000 149.414-14.688C149.414-8.568 145.310-4.824 138.542-4.824C135.014-4.824 134.222-5.544 134.222-8.712L134.222-24.048Z"></path><path d="M195.394-16.056C199.786-13.536 202.810-9.432 202.810-5.976C202.810-3.672 201.442-2.232 198.778-1.800L198.778 0L223.906 0L223.906-1.800C221.026-2.376 220.090-3.600 218.146-9.288L208.210-38.448C207.202-41.328 206.482-43.776 206.482-44.424C206.482-45.576 206.986-46.008 208.210-46.224L208.210-48.024L186.898-48.024L186.898-46.224C188.050-46.008 188.554-45.504 188.554-44.424C188.554-43.776 188.338-43.056 187.762-41.688C187.258-40.536 186.970-39.816 186.898-39.672L176.314-11.448C173.938-5.112 172.066-2.736 168.898-1.800L168.898 0L184.954 0L184.954-1.800C182.506-2.160 181.570-3.096 181.570-5.040C181.570-5.976 182.146-8.496 182.722-10.152L185.602-18.432C190.282-18.432 192.082-18.000 195.394-16.056ZM192.442-38.304L198.058-21.024C194.746-23.256 191.290-24.624 188.626-24.624L187.906-24.624Z"></path><path d="M264.485-47.664C263.837-47.664 262.973-47.808 261.677-48.024C257.141-48.960 255.413-49.176 253.181-49.176C241.517-49.176 232.661-42.192 232.661-33.048C232.661-31.464 233.021-29.880 233.741-28.368C235.469-24.768 238.565-22.536 244.613-20.592L253.685-17.712C258.221-16.200 259.805-14.688 259.805-11.664C259.805-7.560 255.701-4.608 249.869-4.608C241.085-4.608 234.533-10.224 232.661-19.440L231.077-19.224L232.661 1.152C234.101-0.216 235.037-0.648 236.693-0.648C237.341-0.648 238.205-0.504 239.573-0.216C245.981 0.936 247.853 1.224 251.453 1.224C265.925 1.224 276.005-6.048 276.005-16.416C276.005-22.752 272.405-26.784 264.557-29.160L254.405-32.328C249.725-33.768 248.141-35.064 248.141-37.656C248.141-40.680 251.597-43.344 255.557-43.344C261.245-43.344 266.573-39.456 269.381-33.336L270.893-33.552L269.021-49.392C267.869-48.240 266.285-47.664 264.485-47.664Z"></path><path d="M310.824-49.176C294.840-49.176 283.968-39.024 283.968-23.976C283.968-8.784 294.552 1.224 310.752 1.224C326.520 1.224 336.960-8.784 336.960-23.832C336.960-39.312 326.808-49.176 310.824-49.176ZM311.688-4.968C304.704-4.968 299.808-13.896 299.808-26.568C299.808-36.576 303.552-42.840 309.600-42.840C316.656-42.840 321.192-34.344 321.192-21.024C321.192-20.520 321.192-20.088 321.192-19.584C320.976-10.368 317.448-4.968 311.688-4.968Z"></path><path d="M373.867-40.176C371.779-42.696 371.491-43.200 371.491-44.280C371.491-45.288 372.067-45.792 373.363-46.152L373.363-48.024L345.571-48.024L345.571-46.224C348.811-45.576 349.531-44.352 349.531-39.384L349.531-8.640C349.531-3.672 348.811-2.448 345.571-1.800L345.571 0L359.683 0L359.683-1.800C356.443-2.448 355.795-3.672 355.795-8.640L355.795-39.312L377.971-13.752C380.563-10.728 381.715-8.424 381.715-6.408L381.715-5.616C381.643-3.528 380.635-2.448 377.971-1.800L377.971 0L392.443 0L392.443-1.800C389.131-2.376 388.411-3.672 388.411-8.640L388.411-39.384C388.411-44.352 389.131-45.648 392.443-46.224L392.443-48.024L377.971-48.024L377.971-46.224C381.571-45.936 382.435-44.568 382.435-39.384L382.435-29.664Z"></path></g></g><g transform="translate(-125 -280) scale(2.5)" id="logomark"><g fill="#FFFFFF"><path d="M50 5.039c-19.849 0-35.938 16.09-35.938 35.938 0 9.923 4.414 18.539 10.526 25.414L50 94.961l25.411-28.57c6.11-6.877 10.526-15.49 10.526-25.414C85.938 21.128 69.848 5.039 50 5.039zm21.742 57.678C65.936 68.525 58.214 71.725 50 71.725c-8.215 0-15.936-3.199-21.744-9.008-5.808-5.809-9.005-13.528-9.005-21.741 0-16.955 13.793-30.749 30.749-30.749 16.954 0 30.749 13.794 30.749 30.749 0 8.212-3.199 15.934-9.007 21.741z"></path><path d="M32.149 47.356l4.958-3.617 4.957 3.617-1.907-5.833 4.971-3.597-6.136.012-1.885-5.839-1.884 5.839-6.137-.012 4.972 3.597z"></path><path d="M49.999 11.768c-16.105 0-29.208 13.103-29.208 29.208 0 7.801 3.037 15.136 8.554 20.653 5.515 5.518 12.85 8.557 20.654 8.557s15.139-3.039 20.653-8.557c5.518-5.514 8.556-12.85 8.556-20.653-.001-16.106-13.104-29.208-29.209-29.208zm-6.026 46.287l2.412-1.371 17.811-10.117h13.461a27.888 27.888 0 0 1-5.209 11.488H43.973zM72.22 23.631a28.11 28.11 0 0 1 5.296 11.158H64.709L46.385 24.38l-1.318-.749H72.22zM21.791 40.976c0-8.289 3.595-15.753 9.307-20.919l13.417 7.62 22.637 12.857-22.636 12.855-14.016 7.96c-.149-.143-.301-.28-.448-.427-5.327-5.328-8.261-12.413-8.261-19.946z"></path></g></g></svg></svg>